<svg width="94" height="88" viewBox="0 0 94 88" fill="none" xmlns="http://www.w3.org/2000/svg">
<path fill-rule="evenodd" clip-rule="evenodd" d="M6.43729e-05 1.75C-0.0169356 15.68 3.33809 77.033 4.21109 78.762C9.64609 89.528 52.9551 91.198 65.0411 81.108C67.6901 78.897 68.325 77.523 68.86 72.847C69.476 67.467 69.7571 67.022 75.7511 61.962C99.8281 41.637 100.009 15.642 76.0991 12.112L71.5021 11.433L71.6971 5.71704L71.8921 0H35.9471C2.38108 0 0.00206437 0.116 6.43729e-05 1.75ZM78.8571 23.425C86.5701 27.414 85.1481 37.585 75.4221 47.982C72.8411 50.742 70.4521 53.001 70.1151 53.002C69.6361 53.003 70.0541 37.29 70.8931 23.75C71.0291 21.571 74.9611 21.41 78.8571 23.425Z" fill="#999"/>
</svg>
