<svg width="94" height="49" viewBox="0 0 94 49" fill="none" xmlns="http://www.w3.org/2000/svg">
<path fill-rule="evenodd" clip-rule="evenodd" d="M0.695007 7.75C3.29501 36.766 14.688 48.5 40.258 48.5C55.259 48.5 61.097 46.329 68.631 37.95C71.079 35.227 73.913 32.996 74.929 32.99C87.673 32.923 98.511 15.311 91.748 5.657C87.741 -0.0640025 88.421 0.0140038 42.388 0.00700378L0 0L0.695007 7.75ZM85.807 9.347C89.082 14.024 85.964 21.041 79.014 24.635C76.03 26.179 75.999 26.169 76.63 23.849C76.982 22.557 77.771 18.575 78.383 15C78.995 11.425 79.644 7.972 79.825 7.328C80.304 5.619 84.091 6.897 85.807 9.347Z" fill="black"/>
</svg>
