<svg width="97" height="58" viewBox="0 0 97 58" fill="none" xmlns="http://www.w3.org/2000/svg">
<path fill-rule="evenodd" clip-rule="evenodd" d="M0 2.37201C0 10.541 7.86301 33.287 13.307 40.864C15.596 44.05 16.866 47.118 17.229 50.337C17.524 52.956 17.97 55.303 18.22 55.553C20.783 58.117 54.117 58.636 60.126 56.206C62.258 55.343 62.885 54.254 63.462 50.405C64.57 43.017 66.127 41.37 72.642 40.698C95.675 38.32 105.562 9.38499 84.679 5.46799C81.66 4.90099 81 4.34901 81 2.38901V0H40.5H0V2.37201ZM86.006 15.734C90.1 20.939 85.94 28.469 77.356 31.394C74.96 32.211 73 32.623 73 32.311C73 31.998 74.18 28.088 75.621 23.621C77.063 19.155 78.399 14.938 78.59 14.25C79.223 11.971 83.76 12.879 86.006 15.734Z" fill="black"/>
</svg>
