<svg width="332" height="121" viewBox="0 0 332 121" fill="none" xmlns="http://www.w3.org/2000/svg">
<path fill-rule="evenodd" clip-rule="evenodd" d="M148.646 4.90416L147.872 8.80954L143.345 10.578C140.855 11.5507 137.831 12.9446 136.625 13.6762L134.433 15.0061L136.925 18.9622L139.417 22.919L141.931 21.483C143.315 20.6933 144.621 20.2199 144.834 20.4322C145.048 20.6439 142.496 33.8574 139.163 49.7947C135.829 65.7327 133.102 78.8474 133.101 78.9395C133.1 79.0316 135.917 79.1064 139.36 79.1064H145.621L151.859 49.2319C155.29 32.8013 158.251 18.7052 158.44 17.9074C159.464 13.5855 177.535 13.486 181.178 17.7819C183.577 20.6105 183.551 20.8221 177.16 51.0431C174.017 65.9002 171.447 78.3033 171.447 78.6064C171.447 78.9088 174.247 79.0704 177.67 78.9649L183.893 78.7726L189.461 52.403C195.609 23.2848 195.97 19.4676 193.101 13.9146C189.531 7.00239 183.731 4.64313 170.542 4.73593L161.228 4.80202L161.611 2.90007L161.994 0.998779H155.707H149.421L148.646 4.90416ZM213.862 5.17253L213.069 9.34628L207.395 11.9372C200.802 14.9467 201.068 14.3579 204.12 19.1985C206.501 22.9771 206.529 22.9958 208.177 21.9243C210.681 20.296 210.794 19.4589 204.387 50.0831C201.085 65.8622 198.378 78.8474 198.371 78.9395C198.363 79.0316 201.179 79.1064 204.627 79.1064H210.897L217.133 49.2319C220.562 32.8006 223.52 18.7052 223.705 17.9074C224.674 13.733 241.866 13.3318 245.955 17.3887C248.953 20.3628 248.963 20.2566 242.752 49.8C239.787 63.8988 237.188 76.2725 236.975 77.2966L236.586 79.1578L242.869 78.9656L249.151 78.7726L254.667 52.7367C260.819 23.6981 261.198 20.0677 258.65 14.6369C255.124 7.12322 249.393 4.64046 235.8 4.73593L226.486 4.80202L226.869 2.90007L227.252 0.998779H220.954H214.656L213.862 5.17253ZM38.2794 3.32932C20.0516 7.43365 5.97674 28.3344 5.84488 51.4917C5.7406 69.9204 14.2066 78.3914 31.9541 77.6144C36.1515 77.4301 39.5853 77.4655 39.5853 77.6925C39.5859 77.9194 39.0652 80.4035 38.4295 83.2134L37.2723 88.3211L25.4781 88.7757C11.9441 89.2971 9.91173 89.685 6.00163 92.4962C-1.68939 98.0245 -2.04259 108.869 5.25486 115.398C18.1558 126.941 39.6687 119.759 45.5984 101.931L46.5282 99.134H175.927C253.357 99.134 305.327 99.3783 305.327 99.7422C305.327 100.077 304.267 102.808 302.972 105.81C299.717 113.356 299.638 113.153 305.861 113.153H311.105L315.959 101.304C318.628 94.7867 320.81 89.2297 320.807 88.9547C320.803 88.6803 259.712 88.3799 185.049 88.2871L49.2973 88.1188L56.8605 53.7381C61.0195 34.8287 64.4351 19.2359 64.4506 19.087C64.4654 18.9382 65.0662 19.3454 65.786 19.9923C67.0488 21.1258 67.2143 21.0671 70.4954 18.322C74.5205 14.9547 74.4774 15.157 71.7097 12.5634C62.9685 4.37276 49.7998 0.735083 38.2794 3.32932ZM99.1248 5.23061C81.7137 9.73081 68.6123 33.4962 70.0399 57.9893C71.9828 91.3339 112.544 86.8885 124.289 52.0431C134.967 20.3628 123.453 -1.05739 99.1248 5.23061ZM298.263 5.03033C265.876 11.6181 251.668 67.7574 279.663 78.5196C287.034 81.3535 301.074 80.2714 309.216 76.2425L312.287 74.7224L317.994 47.374C324.322 17.0502 323.755 19.1905 325.156 20.3448C326.012 21.0497 326.679 20.7827 329.209 18.7259C332.95 15.6844 332.949 15.6183 329.093 12.6969C320.333 6.05909 308.126 3.02424 298.263 5.03033ZM51.5268 12.7683C53.5168 13.2977 53.7967 11.2269 47.8468 39.9778C41.9453 68.4958 42.8085 66.5611 35.4767 67.7187C22.8099 69.7181 17.6976 64.77 18.2735 51.0678C19.3297 25.9565 34.6714 8.28615 51.5268 12.7683ZM111.37 15.659C122.98 22.6833 112.014 65.0878 97.5566 69.0726C83.3209 72.996 78.6694 61.9441 84.7808 38.7174C89.7088 19.9896 101.552 9.7188 111.37 15.659ZM311.771 15.1817C312.18 15.5882 306.338 45.2972 302.191 63.9008C301.019 69.1587 299.92 69.7615 291.535 69.7415C280.612 69.7161 276.382 64.2079 277.276 51.1726C278.417 34.5283 286.528 19.7212 296.674 15.7618C300.302 14.3458 310.533 13.9526 311.771 15.1817ZM31.753 102.527C27.1022 111.007 14.7058 113.2 11.9583 106.03C10.0322 101.002 13.3051 99.2362 24.658 99.1794L33.6145 99.134L31.753 102.527Z" fill="#E6333F"/>
</svg>
