<svg width="329" height="120" viewBox="0 0 329 120" fill="none" xmlns="http://www.w3.org/2000/svg">
<path fill-rule="evenodd" clip-rule="evenodd" d="M147.303 3.90538L146.536 7.81076L142.05 9.5792C139.582 10.5519 136.585 11.9458 135.391 12.6775L133.218 14.0073L135.687 17.9634L138.157 21.9202L140.649 20.4842C142.02 19.6945 143.314 19.2212 143.526 19.4334C143.737 19.6451 141.208 32.8586 137.905 48.7959C134.602 64.7339 131.899 77.8486 131.898 77.9407C131.897 78.0329 134.689 78.1076 138.101 78.1076H144.305L150.486 48.2331C153.886 31.8025 156.821 17.7064 157.009 16.9086C158.023 12.5867 175.931 12.4872 179.541 16.7831C181.918 19.6117 181.893 19.8233 175.559 50.0443C172.445 64.9014 169.898 77.3045 169.898 77.6076C169.898 77.91 172.673 78.0716 176.064 77.9661L182.231 77.7738L187.749 51.4042C193.841 22.286 194.199 18.4688 191.356 12.9158C187.818 6.00361 182.071 3.64436 169.001 3.73715L159.771 3.80324L160.151 1.90129L160.531 0H154.3H148.07L147.303 3.90538ZM211.93 4.17375L211.143 8.3475L205.521 10.9384C198.988 13.9479 199.251 13.3591 202.275 18.1997C204.635 21.9783 204.663 21.997 206.296 20.9255C208.777 19.2973 208.889 18.4601 202.54 49.0843C199.268 64.8634 196.586 77.8486 196.578 77.9407C196.571 78.0329 199.361 78.1076 202.778 78.1076H208.991L215.171 48.2331C218.569 31.8018 221.5 17.7064 221.684 16.9086C222.644 12.7342 239.681 12.333 243.733 16.3899C246.703 19.364 246.714 19.2579 240.559 48.8013C237.621 62.9 235.045 75.2737 234.833 76.2978L234.449 78.159L240.674 77.9668L246.9 77.7738L252.366 51.738C258.462 22.6993 258.838 19.0689 256.312 13.6381C252.819 6.12444 247.14 3.64168 233.669 3.73715L224.44 3.80324L224.819 1.90129L225.199 0H218.957H212.716L211.93 4.17375ZM37.9335 2.33055C19.8704 6.43487 5.92273 27.3357 5.79206 50.4929C5.68872 68.9216 14.0783 77.3926 31.6654 76.6156C35.8248 76.4313 39.2276 76.4667 39.2276 76.6937C39.2282 76.9207 38.7122 79.4048 38.0822 82.2146L36.9355 87.3223L25.2479 87.777C11.8362 88.2983 9.82216 88.6862 5.9474 91.4974C-1.67413 97.0257 -2.02414 107.87 5.20738 114.4C17.9917 125.942 39.3103 118.76 45.1864 100.932L46.1077 98.1352H174.338C251.068 98.1352 302.568 98.3796 302.568 98.7434C302.568 99.0785 301.518 101.809 300.234 104.811C297.009 112.357 296.93 112.155 303.098 112.155H308.294L313.104 100.305C315.749 93.7879 317.911 88.2309 317.908 87.9559C317.904 87.6815 257.365 87.3811 183.377 87.2883L48.8518 87.1201L56.3467 52.7393C60.4681 33.83 63.8529 18.2371 63.8682 18.0883C63.8829 17.9394 64.4782 18.3466 65.1916 18.9935C66.4429 20.1271 66.6069 20.0683 69.8584 17.3232C73.8471 13.9559 73.8045 14.1582 71.0617 11.5646C62.3995 3.37398 49.3498 -0.263696 37.9335 2.33055ZM98.2291 4.23183C80.9753 8.73203 67.9923 32.4974 69.407 56.9905C71.3324 90.3352 111.527 85.8897 123.166 51.0443C133.747 19.364 122.337 -2.05617 98.2291 4.23183ZM295.567 4.03156C263.474 10.6193 249.394 66.7587 277.136 77.5208C284.44 80.3547 298.353 79.2726 306.422 75.2437L309.465 73.7236L315.121 46.3752C321.391 16.0515 320.829 18.1917 322.218 19.346C323.066 20.051 323.727 19.7839 326.234 17.7271C329.942 14.6856 329.94 14.6195 326.119 11.6981C317.438 5.06031 305.342 2.02546 295.567 4.03156ZM51.0612 11.7696C53.0333 12.2989 53.3106 10.2281 47.4145 38.979C41.5663 67.497 42.4217 65.5624 35.1561 66.7199C22.6038 68.7194 17.5377 63.7712 18.1084 50.069C19.1551 24.9577 34.3581 7.28738 51.0612 11.7696ZM110.363 14.6602C121.869 21.6845 111.002 64.089 96.675 68.0738C82.568 71.9972 77.9586 60.9453 84.0147 37.7186C88.8982 18.9908 100.634 8.72002 110.363 14.6602ZM308.954 14.1829C309.359 14.5894 303.57 44.2984 299.46 62.902C298.299 68.1599 297.209 68.7628 288.901 68.7427C278.076 68.7174 273.884 63.2091 274.77 50.1738C275.902 33.5295 283.939 18.7225 293.993 14.763C297.589 13.3471 307.727 12.9539 308.954 14.1829ZM31.466 101.529C26.8573 110.008 14.5729 112.201 11.8502 105.031C9.9415 100.003 13.1849 98.2374 24.4352 98.1806L33.3108 98.1352L31.466 101.529Z" fill="white"/>
</svg>
