<svg width="101" height="65" viewBox="0 0 101 65" fill="none" xmlns="http://www.w3.org/2000/svg">
<path fill-rule="evenodd" clip-rule="evenodd" d="M0 3.87073C0 18.4577 10.244 46.2247 18.481 53.9627C19.866 55.2647 21 57.3597 21 58.6197C21 65.7807 61.832 66.3127 63.492 59.1737C64.692 54.0127 70.933 48.4127 79.348 44.9457C95.875 38.1367 103.565 28.1397 100.022 18.0677C97.908 12.0567 91.969 6.98071 87.05 6.98071C85.439 6.98071 85 6.33871 85 3.98071V0.980713H42.5H0V3.87073ZM76 10.3557C76 11.1117 75.719 13.1367 75.375 14.8557L74.75 17.9807H42.5H10.25L9.625 14.8557C9.281 13.1367 9 11.1117 9 10.3557C9 9.21671 14.742 8.98071 42.5 8.98071C70.258 8.98071 76 9.21671 76 10.3557ZM91.516 18.3067C94.867 23.0907 91.771 29.3517 83.791 33.9277C76.996 37.8247 76.806 37.7827 78.564 32.7997C79.375 30.4997 80.724 25.8877 81.562 22.5497C83.846 13.4467 83.507 13.9127 86.97 15.1207C88.654 15.7067 90.699 17.1407 91.516 18.3067Z" fill="#999999"/>
</svg>
