<svg width="963" height="351" viewBox="0 0 963 351" fill="none" xmlns="http://www.w3.org/2000/svg">
<path fill-rule="evenodd" clip-rule="evenodd" d="M431.163 11.4232L428.917 22.8465L415.786 28.0192C408.564 30.8642 399.792 34.9414 396.296 37.0816L389.936 40.9714L397.164 52.543L404.394 64.1166L411.686 59.9164C415.698 57.6063 419.488 56.2219 420.107 56.8428C420.725 57.4618 413.324 96.1114 403.656 142.728C393.987 189.347 386.076 227.707 386.072 227.977C386.07 228.246 394.241 228.465 404.228 228.465H422.388L440.481 141.082C450.434 93.0223 459.024 51.7912 459.572 49.4578C462.542 36.816 514.959 36.5251 525.526 49.0906C532.483 57.3642 532.409 57.9832 513.87 146.38C504.755 189.837 497.299 226.116 497.299 227.002C497.299 227.887 505.423 228.359 515.35 228.051L533.4 227.488L549.55 150.357C567.384 65.1867 568.43 54.0212 560.109 37.7787C549.753 17.5605 532.932 10.6597 494.674 10.9312L467.659 11.1245L468.769 5.56126L469.881 0H451.646H433.41L431.163 11.4232ZM620.33 12.2082L618.027 24.4164L601.571 31.9948C582.447 40.7976 583.218 39.0753 592.069 53.2343C598.978 64.2865 599.059 64.3412 603.839 61.2071C611.102 56.4445 611.43 53.9958 592.844 143.572C583.269 189.725 575.416 227.707 575.395 227.977C575.373 228.246 583.54 228.465 593.541 228.465H611.728L629.816 141.082C639.764 93.0203 648.343 51.7912 648.879 49.4578C651.691 37.2476 701.558 36.074 713.418 47.9405C722.114 56.6398 722.143 56.3293 704.128 142.744C695.528 183.983 687.988 220.176 687.369 223.171L686.243 228.615L704.465 228.053L722.688 227.488L738.687 151.334C756.531 66.3954 757.632 55.7767 750.24 39.8915C740.014 17.914 723.39 10.6519 683.962 10.9312L656.946 11.1245L658.057 5.56126L659.169 0H640.9H622.631L620.33 12.2082ZM111.033 6.81684C58.1617 18.822 17.3361 79.9568 16.9537 147.692C16.6512 201.596 41.2078 226.373 92.6862 224.101C104.861 223.562 114.821 223.665 114.821 224.329C114.823 224.993 113.313 232.259 111.469 240.478L108.112 255.418L73.9019 256.748C34.6452 258.273 28.75 259.407 17.4083 267.63C-4.90026 283.8 -5.92476 315.52 15.2423 334.619C52.6626 368.381 115.063 347.374 132.263 295.225L134.96 287.046H510.295C734.888 287.046 885.631 287.76 885.631 288.824C885.631 289.805 882.557 297.791 878.801 306.572C869.36 328.644 869.13 328.052 887.182 328.052H902.392L916.471 293.392C924.214 274.33 930.543 258.075 930.533 257.271C930.521 256.468 753.321 255.59 536.753 255.318L142.992 254.826L164.93 154.263C176.993 98.9526 186.901 53.3436 186.946 52.9082C186.988 52.4727 188.731 53.6639 190.819 55.556C194.482 58.8717 194.962 58.6998 204.479 50.6704C216.154 40.821 216.029 41.4127 208.001 33.8265C182.647 9.8689 144.45 -0.771312 111.033 6.81684ZM287.522 12.3781C237.019 25.5412 199.017 95.055 203.158 166.697C208.794 264.23 326.445 251.227 360.512 149.305C391.485 56.6397 358.087 -6.01429 287.522 12.3781ZM865.141 11.7923C771.202 31.0615 729.988 195.269 811.19 226.748C832.572 235.038 873.296 231.872 896.912 220.088L905.82 215.642L922.374 135.648C940.729 46.9505 939.084 53.2108 943.149 56.587C945.631 58.6491 947.567 57.868 954.904 51.8518C965.756 42.9553 965.752 42.762 954.567 34.217C929.157 14.8014 893.751 5.92446 865.141 11.7923ZM149.459 34.4259C155.231 35.9744 156.043 29.9172 138.785 114.014C121.667 197.429 124.17 191.77 102.904 195.156C66.1626 201.004 51.3337 186.531 53.0041 146.452C56.0679 73.0013 100.568 21.3156 149.459 34.4259ZM323.039 42.8811C356.717 63.4273 324.909 187.46 282.973 199.116C241.681 210.592 228.189 178.265 245.915 110.327C260.21 55.5482 294.562 25.506 323.039 42.8811ZM904.324 41.4849C905.51 42.6741 888.566 129.573 876.535 183.988C873.136 199.368 869.947 201.131 845.627 201.072C813.944 200.998 801.673 184.887 804.267 146.758C807.578 98.0739 831.104 54.7632 860.534 43.1818C871.058 39.0401 900.733 37.89 904.324 41.4849ZM92.1027 296.971C78.6126 321.774 42.6558 328.189 34.6862 307.215C29.0993 292.509 38.5929 287.344 71.5231 287.178L97.5023 287.046L92.1027 296.971Z" fill="white"/>
</svg>
