<svg width="270" height="51" viewBox="0 0 270 51" fill="none" xmlns="http://www.w3.org/2000/svg">
<path fill-rule="evenodd" clip-rule="evenodd" d="M23.4798 0.23884C19.1621 1.07014 15.2437 3.70074 13.2364 7.1159C12.3938 8.54946 12.1924 8.48831 16.2466 8.03123C18.1637 7.81503 20.1859 7.63748 20.7405 7.63649C21.5666 7.63511 21.7703 7.56548 21.8685 7.25221C22.799 4.27914 30.2557 1.78643 34.8097 2.92587C35.6885 3.14563 34.9163 2.31314 33.6424 1.66708C30.7722 0.211614 26.6383 -0.369346 23.4798 0.23884ZM29.7261 4.88358C26.6672 5.34874 22.7944 7.75269 24.5352 8.1058C26.8237 8.56978 28.2627 12.3964 27.0285 14.7351C26.8622 15.0499 27.0433 15.0872 29.2234 15.186C32.9874 15.3569 35.7863 16.3728 39.7324 19.0011C42.5235 20.86 43.3193 21.3202 44.6416 21.8398C48.1339 23.212 54.2457 21.3742 51.1483 19.8833C49.766 19.2177 48.416 17.8145 46.1023 14.6378C40.3405 6.72727 35.7155 3.97258 29.7261 4.88358ZM17.3003 10.0323C12.8897 10.5666 0.695771 12.2108 0.458227 12.3031C-0.248179 12.5779 0.448891 13.9206 1.62669 14.5542C2.82375 15.1981 2.74456 15.3774 1.29868 15.2971L0.0827494 15.2296L0.0230217 16.7092C-0.172111 21.5538 0.862693 23.5949 3.52976 23.6255C5.35346 23.6462 6.37737 23.907 6.99604 24.5081C7.961 25.4453 7.79855 25.5864 5.75346 25.5864C2.79768 25.5864 1.78097 26.6879 1.58914 30.0981C1.44109 32.7321 1.3905 32.6881 4.56787 32.6881H7.19136L8.73219 31.3378C10.3736 29.8997 11.9642 28.963 14.4794 27.9536C20.1717 25.669 22.4024 22.9569 22.8671 17.7555C22.9967 16.3046 23.0136 16.2679 24.0255 15.2419C25.9531 13.2873 25.847 10.9477 23.7912 10.0767C23.0615 9.76741 19.6779 9.74433 17.3003 10.0323ZM16.0562 12.7896C17.1986 13.0812 17.1264 13.427 15.7188 14.4082C14.5233 15.2413 14.3412 15.2245 13.0202 14.1596L12.5339 13.7675L12.9481 13.3443C13.3128 12.9715 14.1591 12.6478 14.9282 12.5866C15.0681 12.5756 15.5756 12.6669 16.0562 12.7896ZM26.9091 17.3093C25.0591 17.6401 24.9609 17.7206 24.8276 19.0141C24.5488 21.7179 23.3342 24.2284 21.3129 26.2778L20.2895 27.3154L21.8687 27.7108C24.0747 28.2629 26.121 29.1301 29.0203 30.7416C38.198 35.8423 43.8486 36.5305 48.853 33.1572C50.923 31.7617 52.8335 29.1189 52.9578 27.479L53 26.9203L51.3463 26.8672C48.3137 26.77 44.7116 25.2177 40.8407 22.3397C38.2129 20.3859 37.4626 19.9089 35.5439 18.9727C32.6267 17.5492 29.2281 16.8944 26.9091 17.3093ZM15.1603 30.0453C11.5646 31.2857 8.91721 33.5622 7.17405 36.9125C6.63243 37.9535 6.77095 38.2032 7.89252 38.2087C9.10222 38.2146 12.9872 39.3764 16.3276 40.7308C22.6835 43.308 25.2904 43.9819 28.9732 43.9998C33.3982 44.0213 38.0519 42.1719 40.5072 39.416C41.5352 38.2622 41.5121 38.2147 39.7754 37.9158C37.3571 37.4993 33.6329 35.8977 29.4721 33.4843C22.751 29.5862 19.061 28.6995 15.1603 30.0453Z" fill="white"/>
<path fill-rule="evenodd" clip-rule="evenodd" d="M192.13 1.65979L191.801 3.31957L189.878 4.07116C188.821 4.48455 187.537 5.07696 187.025 5.38792L186.093 5.9531L187.152 7.63445L188.21 9.31609L189.278 8.7058C189.866 8.37015 190.42 8.16899 190.511 8.25921C190.602 8.34916 189.518 13.9649 188.102 20.7383C186.687 27.5119 185.528 33.0857 185.528 33.1248C185.527 33.164 186.724 33.1957 188.186 33.1957H190.845L193.494 20.4991C194.951 13.5161 196.209 7.52522 196.289 7.18617C196.724 5.34934 204.399 5.30706 205.946 7.13283C206.965 8.33497 206.954 8.42491 204.24 21.2688C202.905 27.5831 201.813 32.8544 201.813 32.9832C201.813 33.1118 203.003 33.1804 204.456 33.1356L207.099 33.0539L209.464 21.8468C212.075 9.47157 212.228 7.84923 211.01 5.48921C209.493 2.55153 207.031 1.54885 201.429 1.58829L197.473 1.61638L197.636 0.808047L197.799 0H195.129H192.459L192.13 1.65979ZM219.827 1.77384L219.49 3.54769L217.08 4.64882C214.28 5.92785 214.393 5.67761 215.689 7.73489C216.701 9.34077 216.713 9.34872 217.412 8.89334C218.476 8.20134 218.524 7.84554 215.803 20.8608C214.401 27.5669 213.251 33.0857 213.248 33.1248C213.245 33.164 214.44 33.1957 215.905 33.1957H218.568L221.216 20.4991C222.673 13.5158 223.929 7.52522 224.007 7.18617C224.419 5.41204 231.72 5.24152 233.457 6.96572C234.73 8.22971 234.734 8.18459 232.097 20.7405C230.837 26.7325 229.733 31.9913 229.643 32.4266L229.478 33.2176L232.146 33.1359L234.814 33.0539L237.157 21.9886C239.769 9.64719 239.93 8.1043 238.848 5.7962C237.351 2.60289 234.917 1.54772 229.144 1.58829L225.188 1.61638L225.351 0.808047L225.514 0H222.839H220.164L219.827 1.77384ZM145.257 0.990482C137.516 2.73482 131.538 11.6177 131.482 21.4595C131.438 29.2917 135.034 32.8919 142.571 32.5616C144.353 32.4833 145.812 32.4984 145.812 32.5948C145.812 32.6913 145.591 33.747 145.321 34.9412L144.83 37.112L139.821 37.3052C134.073 37.5268 133.209 37.6916 131.549 38.8864C128.283 41.2359 128.133 45.8447 131.232 48.6199C136.711 53.5254 145.847 50.4731 148.366 42.896L148.76 41.7075H203.716C236.6 41.7075 258.672 41.8113 258.672 41.9659C258.672 42.1084 258.222 43.2688 257.672 44.5447C256.289 47.7517 256.256 47.6657 258.899 47.6657H261.126L263.187 42.6296C264.321 39.8599 265.248 37.4981 265.246 37.3812C265.245 37.2646 239.299 37.137 207.59 37.0975L149.936 37.026L153.149 22.4142C154.915 14.3777 156.366 7.75078 156.372 7.68751C156.378 7.62424 156.634 7.79731 156.939 8.07224C157.476 8.554 157.546 8.52904 158.939 7.36236C160.649 5.93126 160.63 6.01723 159.455 4.91496C155.743 1.43394 150.15 -0.112071 145.257 0.990482ZM171.098 1.79853C163.704 3.71111 158.14 13.8114 158.746 24.221C159.571 38.3924 176.797 36.5031 181.785 21.6938C186.32 8.22971 181.43 -0.873871 171.098 1.79853ZM255.672 1.71341C241.917 4.5132 235.883 28.3724 247.772 32.9464C250.903 34.1508 256.866 33.6908 260.324 31.9786L261.628 31.3325L264.052 19.7095C266.739 6.82187 266.498 7.73149 267.093 8.22205C267.457 8.52166 267.74 8.40817 268.815 7.53402C270.404 6.24137 270.403 6.21328 268.765 4.9717C265.045 2.15063 259.861 0.860819 255.672 1.71341ZM150.883 5.00206C151.729 5.22705 151.847 4.34694 149.32 16.5661C146.814 28.6862 147.181 27.864 144.067 28.356C138.687 29.2057 136.516 27.1028 136.761 21.2793C137.209 10.607 143.725 3.09713 150.883 5.00206ZM176.299 6.23059C181.23 9.21593 176.572 27.2378 170.432 28.9314C164.386 30.5988 162.411 25.9018 165.006 16.0304C167.099 8.07111 172.129 3.70601 176.299 6.23059ZM261.409 6.02772C261.582 6.20051 259.102 18.8268 257.34 26.7334C256.842 28.968 256.375 29.2242 252.815 29.2157C248.176 29.2049 246.379 26.8639 246.759 21.3239C247.244 14.2501 250.688 7.95705 254.997 6.27428C256.538 5.6725 260.883 5.50539 261.409 6.02772ZM142.485 43.1496C140.51 46.7535 135.246 47.6855 134.079 44.6381C133.261 42.5013 134.651 41.7509 139.472 41.7268L143.276 41.7075L142.485 43.1496Z" fill="white"/>
<path d="M84 14.5L100 30.5" stroke="white" stroke-width="3" stroke-linecap="round"/>
<path d="M100 14.5L84 30.5" stroke="white" stroke-width="3" stroke-linecap="round"/>
</svg>
