<svg width="589" height="154" viewBox="0 0 589 154" fill="none" xmlns="http://www.w3.org/2000/svg">
<path fill-rule="evenodd" clip-rule="evenodd" d="M141.337 112.516L176.212 112.516C177.631 112.516 178.942 111.759 179.652 110.53L197.089 80.3276C197.799 79.0988 197.799 77.5848 197.089 76.356L179.652 46.1535C178.942 44.9247 177.631 44.1677 176.212 44.1677L141.337 44.1677C139.918 44.1677 138.607 44.9247 137.898 46.1535L120.46 76.356C119.751 77.5848 119.751 79.0988 120.46 80.3276L137.898 110.53C138.607 111.759 139.918 112.516 141.337 112.516ZM176.212 124.431C181.888 124.431 187.132 121.403 189.97 116.487L207.408 86.2849C210.245 81.3697 210.245 75.3139 207.408 70.3987L189.97 40.1961C187.132 35.2809 181.888 32.2531 176.212 32.2531L141.337 32.253C135.662 32.2531 130.417 35.2809 127.579 40.1961L110.142 70.3987C107.304 75.3139 107.304 81.3697 110.142 86.2849L127.579 116.487C130.417 121.403 135.662 124.431 141.337 124.431L176.212 124.431Z" fill="black"/>
<path fill-rule="evenodd" clip-rule="evenodd" d="M146.022 112.09L171.302 112.09C172.331 112.09 173.281 111.541 173.795 110.65L186.436 88.7567C186.95 87.866 186.95 86.7685 186.436 85.8778L173.795 63.9843C173.281 63.0936 172.331 62.5448 171.302 62.5448L146.022 62.5448C144.993 62.5448 144.043 63.0936 143.529 63.9843L130.888 85.8778C130.374 86.7685 130.374 87.8659 130.888 88.7567L143.529 110.65C144.043 111.541 144.993 112.09 146.022 112.09ZM171.302 120.726C175.416 120.726 179.218 118.532 181.275 114.969L193.915 93.0751C195.972 89.5121 195.972 85.1224 193.915 81.5594L181.275 59.6659C179.218 56.1029 175.416 53.9081 171.302 53.9081L146.022 53.9081C141.908 53.9081 138.106 56.1029 136.049 59.6659L123.409 81.5594C121.352 85.1223 121.352 89.5121 123.409 93.0751L136.049 114.969C138.106 118.532 141.908 120.726 146.022 120.726L171.302 120.726Z" fill="black"/>
<path fill-rule="evenodd" clip-rule="evenodd" d="M150.413 112.133L166.75 112.106C167.414 112.105 168.029 111.75 168.362 111.175L176.554 97.0411C176.887 96.4661 176.888 95.7583 176.557 95.1844L168.413 81.0777C168.081 80.5037 167.468 80.1509 166.803 80.152L150.467 80.1792C149.802 80.1803 149.187 80.5352 148.854 81.1103L140.662 95.2442C140.329 95.8192 140.328 96.527 140.659 97.101L148.804 111.208C149.135 111.782 149.749 112.134 150.413 112.133ZM166.74 117.676C169.399 117.672 171.858 116.252 173.191 113.952L181.383 99.8183C182.716 97.5181 182.72 94.6869 181.395 92.3912L173.251 78.2845C171.925 75.9887 169.471 74.5772 166.812 74.5816L150.476 74.6089C147.818 74.6133 145.359 76.033 144.025 78.3332L135.834 92.4671C134.501 94.7672 134.496 97.5984 135.821 99.8942L143.966 114.001C145.291 116.297 147.746 117.708 150.404 117.704L166.74 117.676Z" fill="black"/>
<path fill-rule="evenodd" clip-rule="evenodd" d="M153.515 112.141L164.027 112.123C164.454 112.123 164.85 111.894 165.064 111.524L170.335 102.43C170.55 102.06 170.551 101.604 170.337 101.235L165.097 92.1578C164.884 91.7885 164.489 91.5614 164.061 91.5621L153.549 91.5797C153.122 91.5804 152.726 91.8088 152.512 92.1788L147.241 101.273C147.026 101.643 147.026 102.099 147.239 102.468L152.479 111.545C152.693 111.914 153.087 112.142 153.515 112.141ZM164.021 115.708C165.731 115.705 167.314 114.791 168.172 113.311L173.442 104.217C174.3 102.737 174.303 100.915 173.45 99.4375L168.21 90.3605C167.357 88.8833 165.778 87.975 164.067 87.9779L153.555 87.9954C151.845 87.9982 150.263 88.9118 149.405 90.3918L144.134 99.4864C143.276 100.966 143.273 102.788 144.126 104.265L149.366 113.342C150.219 114.82 151.798 115.728 153.509 115.725L164.021 115.708Z" fill="black"/>
<path d="M53.419 29.5652C61.8182 29.5652 69.4335 31.525 76.2648 35.4447C83.2082 39.2523 88.6397 44.6838 92.5593 51.7391C96.479 58.6825 98.4388 66.8017 98.4388 76.0969C98.4388 85.392 96.479 93.5672 92.5593 100.623C88.6397 107.566 83.2082 112.997 76.2648 116.917C69.4335 120.725 61.8182 122.629 53.419 122.629C41.8841 122.629 32.8129 118.989 26.2055 111.71V153.874H0V30.9091H25.0297V41.3241C31.525 33.4849 40.9882 29.5652 53.419 29.5652ZM48.8834 101.127C55.6028 101.127 61.0903 98.8867 65.3459 94.4071C69.7135 89.8156 71.8973 83.7122 71.8973 76.0969C71.8973 68.4816 69.7135 62.4341 65.3459 57.9546C61.0903 53.363 55.6028 51.0672 48.8834 51.0672C42.164 51.0672 36.6206 53.363 32.253 57.9546C27.9974 62.4341 25.8696 68.4816 25.8696 76.0969C25.8696 83.7122 27.9974 89.8156 32.253 94.4071C36.6206 98.8867 42.164 101.127 48.8834 101.127Z" fill="black"/>
<path d="M243.409 46.1957C246.545 41.8281 250.744 38.5244 256.008 36.2846C261.383 34.0448 267.543 32.9249 274.486 32.9249V57.1146C271.575 56.8907 269.615 56.7787 268.607 56.7787C261.104 56.7787 255.224 58.9065 250.968 63.1621C246.713 67.3057 244.585 73.5771 244.585 81.9763V124.644H218.38V34.2688H243.409V46.1957Z" fill="black"/>
<path d="M340.631 120.277C338.056 122.181 334.864 123.636 331.056 124.644C327.361 125.54 323.497 125.988 319.465 125.988C308.602 125.988 300.259 123.244 294.436 117.757C288.612 112.269 285.7 104.206 285.7 93.5672V14.2787H311.906V36.2846H334.248V56.4427H311.906V93.2313C311.906 97.0389 312.858 100.007 314.762 102.134C316.666 104.15 319.409 105.158 322.993 105.158C327.025 105.158 330.608 104.038 333.744 101.798L340.631 120.277Z" fill="black"/>
<path d="M440.499 34.2688V124.644H415.47V114.229C408.974 122.069 399.567 125.988 387.248 125.988C378.737 125.988 371.01 124.084 364.066 120.277C357.235 116.469 351.86 111.038 347.94 103.982C344.02 96.9269 342.061 88.7517 342.061 79.4565C342.061 70.1614 344.02 61.9862 347.94 54.9308C351.86 47.8755 357.235 42.444 364.066 38.6364C371.01 34.8287 378.737 32.9249 387.248 32.9249C398.783 32.9249 407.798 36.5646 414.294 43.8439V34.2688H440.499ZM391.784 104.486C398.391 104.486 403.879 102.246 408.246 97.7668C412.614 93.1753 414.798 87.0718 414.798 79.4565C414.798 71.8413 412.614 65.7938 408.246 61.3143C403.879 56.7227 398.391 54.4269 391.784 54.4269C385.064 54.4269 379.521 56.7227 375.153 61.3143C370.786 65.7938 368.602 71.8413 368.602 79.4565C368.602 87.0718 370.786 93.1753 375.153 97.7668C379.521 102.246 385.064 104.486 391.784 104.486Z" fill="black"/>
<path d="M493.319 125.988C483.127 125.988 475.176 123.3 469.465 117.925C463.753 112.437 460.898 104.71 460.898 94.7431V0H487.103V93.2313C487.103 97.0389 488.055 100.007 489.959 102.134C491.975 104.15 494.774 105.158 498.358 105.158C499.702 105.158 501.046 104.99 502.39 104.654C503.846 104.318 504.965 103.926 505.749 103.478L506.925 123.804C502.558 125.26 498.022 125.988 493.319 125.988Z" fill="black"/>
<path d="M546.332 125.988C538.829 125.988 531.493 125.092 524.326 123.3C517.159 121.397 511.447 119.045 507.192 116.245L515.927 97.4309C519.958 100.007 524.83 102.134 530.541 103.814C536.253 105.382 541.852 106.166 547.34 106.166C558.427 106.166 563.97 103.422 563.97 97.9348C563.97 95.3591 562.458 93.5112 559.435 92.3913C556.411 91.2714 551.763 90.3195 545.492 89.5356C538.101 88.4157 531.997 87.1278 527.182 85.672C522.366 84.2161 518.167 81.6403 514.583 77.9447C511.111 74.249 509.375 68.9855 509.375 62.1542C509.375 56.4427 510.999 51.4032 514.247 47.0356C517.607 42.556 522.422 39.0843 528.694 36.6206C535.077 34.1568 542.58 32.9249 551.204 32.9249C557.587 32.9249 563.914 33.6528 570.186 35.1087C576.569 36.4526 581.833 38.3564 585.976 40.8202L577.241 59.4664C569.29 54.9868 560.611 52.7471 551.204 52.7471C545.604 52.7471 541.404 53.531 538.605 55.0988C535.805 56.6667 534.405 58.6825 534.405 61.1463C534.405 63.946 535.917 65.9058 538.941 67.0257C541.964 68.1456 546.78 69.2095 553.387 70.2174C560.779 71.4493 566.826 72.7932 571.53 74.249C576.233 75.5929 580.321 78.1127 583.792 81.8083C587.264 85.504 589 90.6555 589 97.2629C589 102.862 587.32 107.846 583.96 112.213C580.601 116.581 575.673 119.997 569.178 122.461C562.794 124.812 555.179 125.988 546.332 125.988Z" fill="black"/>
</svg>
