<svg width="28" height="47" viewBox="0 0 28 47" fill="none" xmlns="http://www.w3.org/2000/svg">
<path d="M17.6201 27.9272C8.95515 16.9662 8.87914 6.98115 17.4211 1.68915C21.8981 -1.08585 22.8711 -0.425845 20.1721 3.55216C16.3032 9.25216 16.8451 13.1341 22.7091 21.7401C29.3261 31.4501 29.5211 38.1291 23.3351 43.1401C19.6611 46.1161 17.0821 45.5161 19.6292 42.2771C22.9111 38.1051 22.3181 33.8722 17.6201 27.9272Z" fill="black"/>
<path d="M3.56915 35.8961C-0.973848 30.2431 -1.20085 23.9451 3.00815 20.3251C6.52715 17.2981 9.24815 17.0231 7.73715 19.8461C6.01015 23.0741 6.56315 26.1911 9.70215 30.9121C13.3151 36.3471 13.7121 41.9021 10.7021 44.9121C7.51315 48.1011 5.73014 47.5171 6.38214 43.4991C6.84214 40.6641 6.36515 39.3761 3.56915 35.8961Z" fill="black"/>
</svg>
