<svg width="149" height="96" viewBox="0 0 149 96" fill="none" xmlns="http://www.w3.org/2000/svg">
<path d="M85.2186 87.8126L90.0897 87.5714L89.1603 86.517L98.9677 86.5386H103.477L101.199 88.8778L91.887 94.3733L85.2186 87.8126ZM27.3219 77.3938H28.3598L27.6835 77.9121L27.3219 77.3938ZM110.699 75.5764H114.156L112.124 77.6637L110.699 75.5764ZM81.19 75.4612L82.0145 75.3605L81.5625 76.0802L81.19 75.4612ZM59.6804 74.8962H64.9457L66.649 75.0941L64.1357 78.4555L59.6804 74.8962ZM26.8156 74.8314H31.7663L28.6599 77.1635L26.8156 74.8314ZM22.7654 68.6054L25.3619 68.8249L23.4995 70.3976L22.7654 68.6054ZM80.1883 63.8764L88.2888 63.5166L82.8861 69.0228L81.4395 71.4125L81.284 71.2397L77.9498 65.3628L81.5444 65.7443L80.1883 63.8764ZM21.4129 60.9973L34.5906 61.0261L26.5987 67.7704L21.4129 60.9973ZM20.451 59.7413L23.0041 59.7665L21.1959 60.713L20.451 59.7413ZM104.837 56.6679L116.984 56.7003L106.981 68.2635L105.506 66.3885L104.323 63.5094L110.471 64.0276L104.837 56.6679ZM125.45 0L122.719 9.81053L119.646 16.1949L122.633 15.1153L118.38 22.9464L114.239 26.4337H119.823L112.359 36.9173L105.849 41.5202L117.017 41.549L110.641 51.194L104.2 55.8006L101.351 52.0721L106.482 52.1225L100.371 41.8837L97.315 29.5684L91.6013 42.7654L85.1824 53.0546L91.5724 51.8706L87.8078 55.9229L79.6495 63.1207L77.3134 59.9321L75.8994 56.8802H78.1053L75.2702 53.1374L74.5252 50.8233L75.3353 50.8953L73.6103 46.7854L73.3789 42.8266L70.4605 51.4135L72.1168 51.0968L70.0446 54.9296L67.8966 57.636L71.3754 57.0206L67.8857 62.3073L64.8625 65.1037L69.8494 65.1612L64.9927 71.3009L64.8336 71.4413L61.4524 69.4583L52.9975 61.0549L64.877 61.0765L57.1381 56.2504L51.3521 49.992H58.6027L53.0192 44.4497L48.5856 38.911H54.1692L49.6271 36.4458L46.3653 30.6264L48.7303 31.0943L44.4812 24.5947L43.0564 19.5563L40.3405 26.736L37.2703 31.4146L40.2574 30.6156L36.001 36.3486L31.8604 38.9002H37.4403L29.969 46.5694L23.4597 49.9344L34.6268 49.9596L28.2405 57.0098L24.0926 59.1691L19.6843 51.7842L17.3084 42.2004L12.8568 52.4716L7.86634 60.4791L12.8568 59.5614L9.924 62.714L2.84332 68.9545L10.2856 68.6162L6.08351 72.8988L3.393 77.347H5.70742L0.92308 85.1278L4.90099 84.8795L4.26814 85.9268L3.54488 86.517H9.17905H9.9023H14.2201L9.39964 88.5935L19.4059 88.6151L54.0643 88.6835H61.3692L56.4981 95.9244L81.9169 95.9748L93.5469 96L91.9195 94.3913L101.796 94.4165L136.454 94.5101L147.617 94.5425L156 90.7852L146.536 80.4853L142.066 75.6232L153.234 75.652L143.831 68.2059L135.373 56.6895L147.249 56.7219L139.528 50.1683L133.742 41.6102H140.992L135.409 34.0526L130.975 26.4949H136.559L132.017 23.1228L128.762 15.1333L131.109 15.7667L126.871 6.88105L125.45 0Z" fill="#1E5B55"/>
</svg>
