<svg width="168" height="96" viewBox="0 0 168 96" fill="none" xmlns="http://www.w3.org/2000/svg">
<path d="M114.986 81.1955L118.73 81.2946L117.28 82.9453L114.986 81.1955ZM49.5155 78.4616L46.6669 80.9666L49.5155 78.4616ZM130.628 78.2702L131.727 78.3522L131.319 78.9913L130.628 78.2702ZM39.6832 74.6203L41.6741 74.6716L40.7824 75.6182L39.6832 74.6203ZM128.885 71.5139L132.265 72.1973L130.965 73.7831L128.885 71.5139ZM18.9567 69.9282L11.3366 76.623L18.9567 69.9282ZM61.4034 69.2857L64.5311 69.3677L63.2923 71.2234L61.4034 69.2857ZM112.876 69.2002L121.238 69.4258L119.894 71.425L122.991 71.4831L119.798 75.1842L112.876 69.2002ZM91.9656 68.6432L96.2742 68.7594L93.7217 71.0354L91.9656 68.6432ZM89.4709 65.2496L91.6729 65.0685L90.0154 65.9912L89.4709 65.2496ZM66.454 65.8887L65.7189 64.8977L67.3559 65.1403L66.7331 66.0664L66.454 65.8887ZM56.2235 62.1022L50.1315 69.419L56.2235 62.1022ZM61.7301 59.5186L66.7637 59.6518L63.9389 62.4986L61.7301 59.5186ZM92.1834 59.7783L91.649 59.0948L98.0848 59.2691L94.9537 62.2799L92.1834 59.7783ZM37.0115 55.9644L45.7616 56.1968L43.0967 59.0196L48.7225 59.17L44.6793 63.8348L37.0115 55.9644ZM29.1327 45.0285L19.3991 56.7504L29.1327 45.0285ZM28.9898 0L27.0703 6.7119L21.7475 15.2932L24.5586 14.7498L20.4202 22.4835L14.9441 25.631L21.5331 25.8087L16.04 33.105L9.18907 40.3568L17.7417 40.5824L10.6321 48.7843L1.28307 55.0212L15.2947 55.3937L4.91445 66.4048L0.775966 68.9473L0.619411 73.578L6.74546 73.7421L1.30008 78.3625L0.432227 79.1006L0 92.1451L48.685 93.4437L47.4905 94.5031L65.1641 94.9748L103.799 96L101.686 92.7705L125.71 93.413L134.736 93.6522L133.565 93.1293L148.54 93.5292L146.344 90.5252L152.43 90.0263H168L166.084 86.6088H167.377L165.88 83.8748L163.531 81.2536L167.697 81.4689L163.749 77.6482L162.112 75.7173L164.896 76.2846L162.112 71.3874L160.639 66.3911L158.273 70.9739L155.602 75.8438L157.838 75.8233L153.856 81.4826L156.527 81.2434L156.01 82.6104L153.117 86.6054H153.971L152.372 89.1616L148.655 85.8228L142.601 77.9831L149.111 78.0959L145.286 74.5007L140.964 67.7717L145.48 68.6705L142.791 65.2121L140.263 60.349L142.41 60.8069L139.32 53.3124L138.517 54.9357L136.076 60.0073L137.138 59.9457L136.059 62.8096L132.193 67.3753L135.069 67.4505L133.088 71.2097L132.496 71.9342L129.066 66.2612L125.89 58.5548L123.79 65.6153L122.293 67.8469L118.719 65.9229L113.186 59.6758L123.259 59.9423L117.474 56.8666L110.98 50.0624L116.017 50.1957L112.358 47.8889L108.7 42.8379L111.368 43.6068L108.741 39.5059L106.498 33.2451L105.058 37.5511L101.025 43.0464L103.173 42.7046L100.059 47.6395L95.8828 49.6489L100.92 49.7822L96.7507 54.447L91.6048 59.0264L85.1384 50.6468L92.7211 50.7767L88.2491 46.5835L83.2189 38.7472L88.4873 39.793L85.3562 35.7706L82.4021 30.1079L84.9002 30.641L80.9115 18.034L78.3045 23.7616L75.8336 29.6738L78.7605 29.6465L77.5013 32.9785L73.002 38.2927L76.351 38.385L74.0435 42.7627L67.2878 51.0057L72.7672 50.6092L67.9174 58.196L65.4296 56.6274L59.8787 49.6899L64.2112 49.8061L61.0767 47.4618L57.9558 42.3082L60.2497 43.0806L58.0103 38.8805L56.118 32.483L54.8553 36.9086L51.3567 42.5372L53.2047 42.1954L50.482 47.2806L46.8779 49.3584L51.2103 49.4746L48.4094 53.1894L44.6895 50.8143L37.505 41.1121L50.6794 41.4538L43.1478 36.7138L34.7143 26.1709L41.3032 26.3452L36.5385 22.7774L31.7874 14.9412L35.2724 16.1168L31.8691 9.72952L28.9898 0Z" fill="#1E5B55"/>
</svg>
