<svg id="圖層_1" data-name="圖層 1" xmlns="http://www.w3.org/2000/svg" xmlns:xlink="http://www.w3.org/1999/xlink" viewBox="0 0 121.63 41.93"><defs><style>.cls-1{fill:none;}.cls-2{clip-path:url(#clip-path);}.cls-3{fill:#fff;}</style><clipPath id="clip-path" transform="translate(0 0)"><rect class="cls-1" width="121.63" height="41.93"/></clipPath></defs><g class="cls-2"><path class="cls-3" d="M11.86,30.59,8.93,33.94l.32.47c.83,1.21,1.66,2.4,2.51,3.59s1.72,2.59,2.45,3.76c-.32,0-.59,0-.81,0L12,41.67c-.29,0-.69,0-1.21,0s-.85,0-1,0c-.58-.93-1.13-1.8-1.65-2.6L6.5,36.58l-2.32,3c-.16.19-.44.59-.86,1.19-.31.42-.54.77-.71,1l-1.26-.09-1.27.09q1.37-1.53,2.81-3.25c1-1.22,1.91-2.29,2.65-3.21L.36,27.82c.3,0,.72,0,1.26.05l1,.06c.32,0,.74,0,1.28-.06l1-.05c.44.76,1.08,1.79,1.92,3.07.4.63.81,1.24,1.21,1.85,1.26-1.64,2.54-3.28,3.82-4.92l1.23.06,1.27-.06Z" transform="translate(0 0)"/><path class="cls-3" d="M21.51,27.8a2.07,2.07,0,0,1,1.3.43,1.26,1.26,0,0,1,.55,1,1.3,1.3,0,0,1-.54,1,2.05,2.05,0,0,1-1.31.44,1.92,1.92,0,0,1-1.29-.44,1.26,1.26,0,0,1,0-2.06,1.91,1.91,0,0,1,1.28-.45m-1.58,4.9.89.06.71,0a8.86,8.86,0,0,0,.93,0l.67,0v9.06l-.58,0-1,0a8.86,8.86,0,0,0-.93,0l-.67,0Z" transform="translate(0 0)"/><path class="cls-3" d="M29.15,32.7l.85.06.71,0a7.74,7.74,0,0,0,.89,0l.64,0v1.38A6.28,6.28,0,0,1,33.82,33a4.61,4.61,0,0,1,2-.45,3.59,3.59,0,0,1,2.92,1,4.11,4.11,0,0,1,.75,2.72v5.48l-.58,0-1,0a8.74,8.74,0,0,0-.93,0l-.68,0V37.11A5.21,5.21,0,0,0,36,35a1.61,1.61,0,0,0-1.58-.86,1.72,1.72,0,0,0-1.77,1.23,6.77,6.77,0,0,0-.25,2.13v4.3l-.59,0-1,0a8.86,8.86,0,0,0-.93,0l-.67,0Z" transform="translate(0 0)"/><path class="cls-3" d="M61.13,27.82l.62.07a2.74,2.74,0,0,0,.45,0,5.17,5.17,0,0,0,.53-.05l.55-.06c.24,1.72.48,3.44.73,5.14.39,2.69.62,4.22.69,4.6q.33,1.89.81,4.2c-.26,0-.64,0-1.14,0s-.83,0-1,0c-.29,0-.67,0-1.15,0l-.9,0A30.83,30.83,0,0,0,61,37.24c-.25-1.72-.49-3.37-.7-4.94-.64,1-1.28,2.08-1.91,3.12l-1.88,3.1c-.43.7-1,1.75-1.82,3.15a5.82,5.82,0,0,0-.61,0,2,2,0,0,0-.35,0L52,38.76l-1.87-3.07c-.66-1.06-1.31-2.11-1.95-3.17-.25,1.53-.43,2.65-.53,3.35q-.26,1.7-.39,3.15c-.09,1-.14,1.9-.14,2.75l-.69-.07-.5,0a5.53,5.53,0,0,0-.63,0l-.53.06c.31-1.32.6-2.75.89-4.29.16-.85.44-2.38.82-4.59l.87-5.06.61.07a2.35,2.35,0,0,0,.42,0,3.61,3.61,0,0,0,.62-.05l.45-.06c.42.74,1,1.8,1.87,3.17.64,1.06,1.28,2.12,1.94,3.19s1.32,2.14,2,3.19l1.89-3c.69-1.09,1.36-2.15,2-3.2.91-1.49,1.57-2.61,2-3.37" transform="translate(0 0)"/><path class="cls-3" d="M74,37.24a3.86,3.86,0,0,0,.68,2.46,3,3,0,0,0,2.55,1,4.62,4.62,0,0,0,1.42-.22,5.55,5.55,0,0,0,1.3-.62l.28.17-.51,1.05a6.67,6.67,0,0,1-3.33.84,6.45,6.45,0,0,1-4.34-1.29A4.55,4.55,0,0,1,70.56,37,4.1,4.1,0,0,1,72,33.77a5.71,5.71,0,0,1,3.89-1.24,4.71,4.71,0,0,1,3.74,1.34,5,5,0,0,1,1,3.37Zm3.44-.9a6.14,6.14,0,0,0-.23-1.85c-.25-.75-.68-1.12-1.3-1.12a1.61,1.61,0,0,0-1.58,1.1A4.74,4.74,0,0,0,74,36.34Z" transform="translate(0 0)"/><path class="cls-3" d="M96.05,41.76l-.89-.07-.64,0c-.36,0-.67,0-.92,0l-.64.06V40.12a3.15,3.15,0,0,1-3.18,1.81,4.36,4.36,0,0,1-3.58-1.44,4.93,4.93,0,0,1-1-3.25A4.92,4.92,0,0,1,86.29,34a4.17,4.17,0,0,1,3.39-1.45,5.13,5.13,0,0,1,1.89.31,2.84,2.84,0,0,1,1.27,1V27.55l.9.07.71,0a8.86,8.86,0,0,0,.93,0l.67-.06Zm-7.41-4.47a6.12,6.12,0,0,0,.3,2.12,1.79,1.79,0,0,0,1.75,1.3,2,2,0,0,0,1.9-1.36A6.1,6.1,0,0,0,93,37.09,5.56,5.56,0,0,0,92.63,35a1.79,1.79,0,0,0-1.75-1.27A1.93,1.93,0,0,0,89,35.07a5.79,5.79,0,0,0-.37,2.22" transform="translate(0 0)"/><path class="cls-3" d="M103.72,27.8a2.06,2.06,0,0,1,1.3.43,1.27,1.27,0,0,1,.56,1,1.32,1.32,0,0,1-.55,1,2,2,0,0,1-1.31.44,2,2,0,0,1-1.29-.44,1.27,1.27,0,0,1,0-2.06,1.92,1.92,0,0,1,1.28-.45m-1.58,4.9.89.06.71,0a8.86,8.86,0,0,0,.93,0l.67,0v9.06l-.58,0-1,0a8.86,8.86,0,0,0-.93,0l-.67,0Z" transform="translate(0 0)"/><path class="cls-3" d="M120.14,40.12a.81.81,0,0,0,.25.7,1.8,1.8,0,0,0,.94.17v.43a9.54,9.54,0,0,1-1.06.34,4.13,4.13,0,0,1-1,.17,2.65,2.65,0,0,1-1.41-.37,2.06,2.06,0,0,1-.89-1,2.94,2.94,0,0,1-1.26,1,4.6,4.6,0,0,1-4.09-.26,2.15,2.15,0,0,1-1-1.85,2.05,2.05,0,0,1,1-1.89,11.51,11.51,0,0,1,3.23-1l.86-.18a4.46,4.46,0,0,0,.84-.3,1.12,1.12,0,0,0,.27-.32,1,1,0,0,0,.08-.41,1.41,1.41,0,0,0-.69-1.15,2.52,2.52,0,0,0-1.52-.5,4.37,4.37,0,0,0-1.93.45,1.8,1.8,0,0,0-.9.71h-.17l-.3-1.16a6.24,6.24,0,0,1,2-.9,9,9,0,0,1,2.34-.31,7.07,7.07,0,0,1,2.93.54,2.12,2.12,0,0,1,1.48,2Zm-3.2-3.26-1.12.32a4.62,4.62,0,0,0-1.18.5,1.41,1.41,0,0,0-.58.64,2.22,2.22,0,0,0-.17.9,1.86,1.86,0,0,0,.29,1.06,1.11,1.11,0,0,0,1,.43,1.59,1.59,0,0,0,1.42-.65,2.47,2.47,0,0,0,.35-1.38Z" transform="translate(0 0)"/><path class="cls-3" d="M8.48.47l1,1.76a27.29,27.29,0,0,1-6,.92V6.21H9.13v.67A15,15,0,0,0,11.31.06L13.1.31a27.62,27.62,0,0,1-.47,2.8h6.18a36.7,36.7,0,0,1-1.46,6.45l-2-.55a19.43,19.43,0,0,0,1.21-4.07H12.15A11.19,11.19,0,0,1,10.5,8.37l-1.37-1V8H7.67V18.75h-2V8H3.5V9.48A31.69,31.69,0,0,1,3,14.42a16.66,16.66,0,0,1-1.44,4.25L0,17.08a14.78,14.78,0,0,0,1.06-3.33,34.46,34.46,0,0,0,.42-4.27V1.59a19,19,0,0,0,7-1.12m3.9,5.9h1.95V7.58c0,.72,0,1.39-.08,2a15.61,15.61,0,0,0,1.81,4.47,9.08,9.08,0,0,0,3,3l-1.14,1.67a10.92,10.92,0,0,1-3.29-3.47,17.52,17.52,0,0,1-1.07-2.17c-.08.23-.16.45-.25.66a14.06,14.06,0,0,1-3.77,5L7.9,17.3a11.25,11.25,0,0,0,3.56-4.19,12.78,12.78,0,0,0,.92-5.53Z" transform="translate(0 0)"/><path class="cls-3" d="M55,.06,56.75.8l-.12.38h5.25V0h1.87V1.18h6V2.7h-6v1h5V9.39c.58.9,1.05,1.68,1.4,2.33l-1.54,1c-.14-.36-.3-.72-.46-1.09l-.77,0V13h2.77v1.53H67.34v2.23a1.67,1.67,0,0,1-.5,1.39,2.47,2.47,0,0,1-1.71.45H63.19l-.42-1.84a12.32,12.32,0,0,0,1.8.16c.54,0,.81-.16.81-.49v-1.9H59.52a23.79,23.79,0,0,1,2,2.15l-1.8,1.2a25.56,25.56,0,0,0-2-2.8l.92-.55H55.86V13h9.52V11.85q-4.06.22-9,.43l-.31-1.52c1.94,0,3.86-.08,5.77-.14V9.56H57V3.66h4.88v-1H56.5V1.57a25.35,25.35,0,0,1-1.29,3.27V18.59H53.42V7.86c-.53.77-1.1,1.52-1.71,2.27l-.65-2.25a25.83,25.83,0,0,0,2.15-3.33A19,19,0,0,0,55,.06M58.79,6h3.09V5H58.79Zm3.09,1.27H58.79v1h3.09ZM63.75,6h3.17V5H63.75Zm3.17,1.27H63.75v1h3.17ZM63.75,9.56v1l3.73-.14a4.78,4.78,0,0,0-.23-.45l.67-.41Z" transform="translate(0 0)"/><path class="cls-3" d="M102.28,3.82h2.16c.17-1.2.31-2.45.44-3.76l1.79.08c-.15,1.34-.3,2.56-.46,3.68h3.07V5.49a39.24,39.24,0,0,1-.82,5.56,15.27,15.27,0,0,1-.58,1.84c.76.61,1.39,1.16,1.87,1.63l-1.22,1.35c-.43-.43-.91-.87-1.42-1.31a1.3,1.3,0,0,0-.08.17,14.84,14.84,0,0,1-3,3.69l-1.48-1.51a14,14,0,0,0,3.13-3.57c-.88-.68-1.83-1.38-2.88-2.11a37.33,37.33,0,0,0,1.42-5.74h-1.89ZM106,5.49a47.12,47.12,0,0,1-1.08,5.19l1.5,1.06a23.36,23.36,0,0,0,1.12-6.25Zm3-3.81h1.71V0h1.79V1.68h5.13V0h1.79V1.68h1.88V3.35h-1.88V9.48h-3.42v1.2h5.38v1.68H118a8.06,8.06,0,0,0,1.32,2.1,9.32,9.32,0,0,0,2.35,2l-.81,1.68a14.09,14.09,0,0,1-3-2.76,12.17,12.17,0,0,1-1.65-3.06h-.19v6.45h-1.87V12.36H114A11,11,0,0,1,112.67,15a12.34,12.34,0,0,1-3.08,3.07l-1.21-1.51A11.68,11.68,0,0,0,111,14.32a6.82,6.82,0,0,0,1.1-2h-3.27V10.68h5.21V9.48h-3.42V3.35h-1.71Zm3.5,3.1h5.13V3.35h-5.13Zm5.13,1.59h-5.13V7.8h5.13Z" transform="translate(0 0)"/></g></svg>